<svg width="271" height="38" viewBox="0 0 271 38" fill="none" xmlns="http://www.w3.org/2000/svg">
<path d="M27.2385 36.0067C29.8687 34.68 32.1007 32.7919 33.8742 30.3872L34.6045 29.4655L29.4167 25.6161L28.7243 26.4995C26.3564 29.6569 22.762 31.4716 18.8545 31.4716C12.048 31.4716 6.50929 25.8617 6.50929 18.9665C6.50929 12.1287 12.048 6.56668 18.8545 6.56668C22.8157 6.56668 26.4165 8.38137 28.737 11.5547L29.4198 12.4732L34.6551 8.57272L33.9216 7.64784C32.1924 5.28779 29.8403 3.2945 27.2985 2.03794C24.703 0.704826 21.7819 0 18.8576 0C8.45986 0 0 8.51213 0 18.9729C0 21.5849 0.496337 24.0023 1.51746 26.372C2.42162 28.6491 3.77469 30.6838 5.55139 32.4316L5.56087 32.4411C7.27118 34.1665 9.2755 35.5379 11.5327 36.5234C13.8848 37.5025 16.3475 38 18.8576 38C21.8167 37.9904 24.7189 37.3047 27.2385 36.0067ZM47.0825 37.4259V1.12262H40.5163V37.4259H47.0825ZM84.254 37.4259V1.12262H77.691V25.345L61.4604 1.12262H55.0397V37.4259H61.6027V13.1557L77.8838 37.4291H84.254V37.4259ZM115.305 37.4259V30.9071H98.711V19.7606H113.576V13.1908H98.711V7.54259H115.763V1.12262H92.1448V37.4259H115.305ZM154.75 37.4259V1.12262H148.528L138.639 14.8205L128.75 1.12262H122.579V37.4259H129.092V12.7156L138.636 25.9382L148.231 12.7188V37.4291H154.75V37.4259ZM185.371 37.4259L181.653 27.5679H169.466L165.698 37.4259H158.695L172.545 1.12262H178.526L192.427 37.4259H185.371ZM179.108 21.0491L175.561 11.6727L172.017 21.0491H179.108ZM218.575 37.4259L205.695 19.5565H202.6V37.4291H196.24V15.7167V1.12262H213.194C215.625 1.12262 217.845 2.06983 219.621 3.859C221.369 5.62266 222.331 7.92212 222.331 10.3396C222.331 12.757 221.369 15.0565 219.621 16.8201C217.905 18.5519 215.768 19.4927 213.431 19.5533L226.301 37.4291H218.575V37.4259ZM213.197 13.1365C214.705 13.1365 215.951 11.9023 215.97 10.381V10.2949C215.951 8.77684 214.705 7.5394 213.197 7.5394H202.604V13.1334H213.197V13.1365ZM264.649 37.4259L247.881 13.6628L261.013 1.12262H251.614L236.98 15.0023V1.12262H230.465V37.4259H236.98V23.9418L242.93 18.2553L256.467 37.4259H264.649ZM267.728 7.63508C269.495 7.63508 271 6.25413 271 4.3629C271 2.48124 269.492 1.10986 267.728 1.10986C265.935 1.10986 264.437 2.48124 264.437 4.3629C264.437 6.25732 265.935 7.63508 267.728 7.63508ZM267.728 1.65522C269.179 1.65522 270.342 2.82249 270.342 4.3629C270.342 5.93521 269.179 7.08972 267.728 7.08972C266.236 7.08972 265.091 5.93521 265.091 4.3629C265.091 2.82249 266.236 1.65522 267.728 1.65522ZM267.036 4.62442H267.693L268.67 6.25732H269.302L268.246 4.59891C268.79 4.52237 269.211 4.23852 269.211 3.55921C269.211 2.82249 268.771 2.48124 267.896 2.48124H266.47V6.25413H267.036V4.62442ZM267.036 2.98195H267.804C268.202 2.98195 268.619 3.06169 268.619 3.52732C268.619 4.10457 268.193 4.14603 267.715 4.14603H267.039V2.98195H267.036Z" fill="#DD0C15"/>
</svg>
